<?xml version="1.0" encoding="UTF-8" standalone="no"?><!DOCTYPE svg PUBLIC "-//W3C//DTD SVG 1.1//EN" "http://www.w3.org/Graphics/SVG/1.1/DTD/svg11.dtd"><svg width="100%" height="100%" viewBox="0 0 610 90" version="1.1" xmlns="http://www.w3.org/2000/svg" xmlns:xlink="http://www.w3.org/1999/xlink" xml:space="preserve" xmlns:serif="http://www.serif.com/" style="fill-rule:evenodd;clip-rule:evenodd;stroke-linejoin:round;stroke-miterlimit:1.41421;"><path d="M17.418,37.953c0,1.187 0.944,2.78 2.149,3.627c0.922,0.647 1.845,0.811 2.744,0.486c0.642,-0.231 2.587,-1.722 5.116,-4.112c-2.53,-2.391 -4.475,-3.883 -5.116,-4.114c-0.899,-0.324 -1.822,-0.161 -2.744,0.487c-1.205,0.846 -2.149,2.439 -2.149,3.626Zm29.528,0l-5.268,-5.268l-5.268,5.268l5.268,5.268l5.268,-5.268Zm0.012,-19.544c-1.81,-1.795 -3.07,-3.034 -3.345,-3.291c-1.876,-1.503 -3.561,-1.46 -5.152,0.133c-0.583,0.583 -1.277,1.503 -1.277,2.574c0,0.799 0.376,1.665 1.118,2.573c0.254,0.271 1.5,1.536 3.309,3.359l5.347,-5.348Zm-3.345,42.38c0.276,-0.257 1.557,-1.517 3.345,-3.291l-5.347,-5.348c-1.809,1.824 -3.055,3.089 -3.309,3.36c-0.742,0.908 -1.118,1.773 -1.118,2.572c0,1.072 0.694,1.991 1.277,2.574c1.591,1.593 3.276,1.637 5.152,0.133Zm13.098,-32.601l-5.267,-5.267l-5.268,5.267l5.268,5.267l5.267,-5.267Zm0,19.531l-5.267,-5.268l-5.268,5.268l5.268,5.267l5.267,-5.267Zm2.563,13.07c1.875,1.504 3.561,1.46 5.152,-0.133c0.583,-0.583 1.277,-1.502 1.277,-2.574c0,-0.799 -0.376,-1.664 -1.118,-2.572c-0.253,-0.27 -1.5,-1.535 -3.309,-3.36l-5.348,5.348c1.789,1.774 3.07,3.034 3.346,3.291Zm5.311,-40.391c0.742,-0.908 1.118,-1.774 1.118,-2.573c0,-1.071 -0.694,-1.991 -1.277,-2.574c-1.591,-1.593 -3.277,-1.636 -5.152,-0.133c-0.275,0.257 -1.535,1.496 -3.346,3.291l5.348,5.348c1.809,-1.824 3.056,-3.09 3.309,-3.359Zm1.892,17.555l-5.268,-5.268l-5.267,5.268l5.267,5.268l5.268,-5.268Zm8.983,0c2.53,2.39 4.475,3.882 5.116,4.114c0.899,0.324 1.822,0.16 2.743,-0.487c1.206,-0.847 2.15,-2.44 2.15,-3.627c0,-1.187 -0.944,-2.78 -2.15,-3.626c-0.921,-0.648 -1.844,-0.811 -2.743,-0.487c-0.642,0.231 -2.588,1.723 -5.116,4.113Zm16.31,0c0,3.225 -1.941,6.755 -4.829,8.784c-2.624,1.843 -5.644,2.289 -8.504,1.257c-1.902,-0.686 -5.535,-3.856 -7.424,-5.58l-5.302,5.302c3.413,3.404 3.595,3.624 3.677,3.722c1.732,2.087 2.61,4.322 2.61,6.644c0,2.554 -1.079,4.984 -3.12,7.027c-1.922,1.924 -4.221,2.987 -6.648,3.075c-2.412,0.087 -4.826,-0.796 -6.982,-2.553c-0.347,-0.283 -2.471,-2.357 -3.795,-3.657l-0.039,0.039l-0.009,-0.01c-1.314,1.29 -3.418,3.344 -3.766,3.628c-2.156,1.757 -4.57,2.64 -6.982,2.553c-2.427,-0.088 -4.726,-1.151 -6.648,-3.075c-2.041,-2.043 -3.12,-4.473 -3.12,-7.027c0,-2.322 0.878,-4.557 2.61,-6.643c0.082,-0.1 0.264,-0.319 3.677,-3.723l-5.302,-5.302c-1.889,1.724 -5.521,4.894 -7.424,5.58c-2.86,1.032 -5.881,0.585 -8.504,-1.258c-2.889,-2.028 -4.829,-5.558 -4.829,-8.783c0,-3.225 1.94,-6.754 4.829,-8.782c2.624,-1.843 5.644,-2.29 8.504,-1.258c1.903,0.687 5.535,3.856 7.424,5.58l5.302,-5.301c-3.413,-3.405 -3.595,-3.624 -3.677,-3.723c-1.732,-2.087 -2.61,-4.322 -2.61,-6.644c0,-2.553 1.079,-4.983 3.12,-7.026c1.922,-1.924 4.221,-2.987 6.648,-3.075c2.412,-0.087 4.826,0.795 6.981,2.552c0.349,0.284 2.453,2.339 3.767,3.628l0.392,-0.415l0.036,0.071c1.309,-1.283 3.098,-3.025 3.415,-3.284c2.156,-1.757 4.57,-2.639 6.982,-2.552c2.427,0.088 4.726,1.151 6.648,3.074c2.041,2.044 3.12,4.474 3.12,7.027c0,2.322 -0.878,4.557 -2.61,6.644c-0.081,0.098 -0.262,0.316 -3.677,3.723l5.302,5.301c1.889,-1.724 5.521,-4.893 7.424,-5.58c2.86,-1.032 5.88,-0.585 8.504,1.258c2.889,2.028 4.829,5.557 4.829,8.782Z" style="fill:#ffbf00;fill-rule:nonzero;"/><g><path d="M151.642,16.774c0.842,0 1.55,0.287 2.124,0.861c0.574,0.574 0.861,1.282 0.861,2.123l0,38.86c0,0.842 -0.297,1.55 -0.89,2.124c-0.593,0.574 -1.291,0.861 -2.095,0.861c-0.842,0 -1.55,-0.287 -2.124,-0.861c-0.574,-0.574 -0.861,-1.282 -0.861,-2.124l0,-28.528l-13.891,28.299c-0.65,0.995 -1.511,1.492 -2.583,1.492c-1.262,0 -2.181,-0.593 -2.755,-1.779l-13.718,-27.495l0,28.011c0,0.842 -0.287,1.55 -0.861,2.124c-0.574,0.574 -1.282,0.861 -2.124,0.861c-0.842,0 -1.55,-0.287 -2.124,-0.861c-0.574,-0.574 -0.861,-1.282 -0.861,-2.124l0,-38.86c0,-0.841 0.287,-1.549 0.861,-2.123c0.574,-0.574 1.282,-0.861 2.124,-0.861c1.148,0 2.028,0.535 2.64,1.607l17.048,34.153l16.589,-34.153c0.612,-1.072 1.492,-1.607 2.64,-1.607Z" style="fill-rule:nonzero;"/><path d="M179.768,61.833c-3.061,0 -5.797,-0.68 -8.208,-2.038c-2.411,-1.359 -4.286,-3.243 -5.625,-5.654c-1.34,-2.411 -2.009,-5.147 -2.009,-8.208c0,-3.1 0.669,-5.855 2.009,-8.266c1.339,-2.411 3.214,-4.295 5.625,-5.654c2.411,-1.358 5.147,-2.037 8.208,-2.037c3.023,0 5.73,0.679 8.122,2.037c2.392,1.359 4.267,3.243 5.625,5.654c1.359,2.411 2.038,5.166 2.038,8.266c0,3.061 -0.67,5.797 -2.009,8.208c-1.339,2.411 -3.205,4.295 -5.597,5.654c-2.391,1.358 -5.118,2.038 -8.179,2.038Zm0,-5.166c1.952,0 3.702,-0.46 5.252,-1.378c1.55,-0.918 2.755,-2.191 3.616,-3.817c0.861,-1.626 1.292,-3.473 1.292,-5.539c0,-2.067 -0.431,-3.923 -1.292,-5.568c-0.861,-1.645 -2.066,-2.927 -3.616,-3.846c-1.55,-0.918 -3.3,-1.377 -5.252,-1.377c-1.952,0 -3.702,0.459 -5.252,1.377c-1.55,0.919 -2.765,2.201 -3.645,3.846c-0.88,1.645 -1.32,3.501 -1.32,5.568c0,2.066 0.44,3.913 1.32,5.539c0.88,1.626 2.095,2.899 3.645,3.817c1.55,0.918 3.3,1.378 5.252,1.378Z" style="fill-rule:nonzero;"/><path d="M231.371,16.774c0.88,0 1.588,0.267 2.123,0.803c0.536,0.536 0.804,1.244 0.804,2.124l0,26.174c0,2.985 -0.698,5.693 -2.095,8.123c-1.397,2.429 -3.291,4.343 -5.683,5.74c-2.391,1.396 -5.06,2.095 -8.007,2.095c-2.947,0 -5.635,-0.699 -8.065,-2.095c-2.43,-1.397 -4.333,-3.311 -5.711,-5.74c-1.378,-2.43 -2.066,-5.138 -2.066,-8.123c0,-2.984 0.641,-5.692 1.923,-8.122c1.281,-2.43 3.042,-4.333 5.28,-5.711c2.239,-1.378 4.736,-2.066 7.491,-2.066c2.219,0 4.286,0.459 6.199,1.377c1.914,0.919 3.54,2.201 4.879,3.846l0,-15.498c0,-0.88 0.278,-1.588 0.832,-2.124c0.555,-0.536 1.254,-0.803 2.096,-0.803Zm-12.858,39.893c1.913,0 3.645,-0.469 5.195,-1.407c1.549,-0.937 2.764,-2.229 3.645,-3.874c0.88,-1.646 1.32,-3.482 1.32,-5.511c0,-2.028 -0.44,-3.855 -1.32,-5.481c-0.881,-1.627 -2.096,-2.909 -3.645,-3.846c-1.55,-0.938 -3.282,-1.406 -5.195,-1.406c-1.913,0 -3.645,0.468 -5.195,1.406c-1.549,0.937 -2.774,2.219 -3.673,3.846c-0.9,1.626 -1.349,3.453 -1.349,5.481c0,2.029 0.449,3.865 1.349,5.511c0.899,1.645 2.124,2.937 3.673,3.874c1.55,0.938 3.282,1.407 5.195,1.407Z" style="fill-rule:nonzero;"/><path d="M272.813,45.416c0,0.727 -0.248,1.33 -0.746,1.808c-0.497,0.479 -1.129,0.718 -1.894,0.718l-21.812,0c0.421,2.678 1.636,4.841 3.645,6.486c2.009,1.645 4.468,2.468 7.376,2.468c1.148,0 2.344,-0.21 3.587,-0.631c1.244,-0.421 2.268,-0.938 3.071,-1.55c0.536,-0.421 1.167,-0.631 1.894,-0.631c0.727,0 1.301,0.191 1.722,0.574c0.689,0.574 1.034,1.224 1.034,1.951c0,0.689 -0.307,1.263 -0.919,1.722c-1.301,1.033 -2.918,1.875 -4.85,2.526c-1.933,0.65 -3.779,0.976 -5.539,0.976c-3.138,0 -5.951,-0.68 -8.438,-2.038c-2.487,-1.359 -4.429,-3.243 -5.826,-5.654c-1.397,-2.411 -2.095,-5.147 -2.095,-8.208c0,-3.062 0.66,-5.807 1.98,-8.237c1.32,-2.43 3.157,-4.324 5.51,-5.683c2.354,-1.358 5.023,-2.037 8.008,-2.037c2.946,0 5.491,0.65 7.634,1.951c2.143,1.301 3.788,3.119 4.936,5.453c1.148,2.334 1.722,5.013 1.722,8.036Zm-14.292,-10.504c-2.794,0 -5.061,0.765 -6.802,2.296c-1.741,1.531 -2.841,3.578 -3.301,6.142l19.115,0c-0.345,-2.564 -1.301,-4.611 -2.87,-6.142c-1.569,-1.531 -3.617,-2.296 -6.142,-2.296Z" style="fill-rule:nonzero;"/><path d="M295.659,29.861c2.028,0 3.616,0.306 4.764,0.918c1.148,0.612 1.722,1.378 1.722,2.296c0,0.268 -0.019,0.459 -0.058,0.574c-0.344,1.225 -1.109,1.837 -2.296,1.837c-0.191,0 -0.478,-0.038 -0.861,-0.115c-1.53,-0.268 -2.774,-0.402 -3.731,-0.402c-2.755,0 -4.974,0.632 -6.658,1.895c-1.684,1.262 -2.526,2.965 -2.526,5.108l0,16.761c0,0.918 -0.239,1.626 -0.717,2.124c-0.478,0.497 -1.196,0.746 -2.153,0.746c-0.918,0 -1.626,-0.239 -2.123,-0.718c-0.498,-0.478 -0.747,-1.195 -0.747,-2.152l0,-25.658c0,-0.918 0.249,-1.626 0.747,-2.124c0.497,-0.497 1.205,-0.746 2.123,-0.746c1.914,0 2.87,0.957 2.87,2.87l0,1.091c1.148,-1.34 2.564,-2.392 4.248,-3.157c1.684,-0.766 3.482,-1.148 5.396,-1.148Z" style="fill-rule:nonzero;"/><path d="M323.785,29.918c2.64,0 5.013,0.574 7.117,1.722c2.105,1.148 3.75,2.822 4.937,5.023c1.186,2.2 1.779,4.85 1.779,7.95l0,14.12c0,0.842 -0.277,1.54 -0.832,2.095c-0.555,0.555 -1.254,0.832 -2.095,0.832c-0.842,0 -1.541,-0.277 -2.096,-0.832c-0.554,-0.555 -0.832,-1.253 -0.832,-2.095l0,-14.12c0,-3.1 -0.832,-5.444 -2.497,-7.032c-1.664,-1.588 -3.874,-2.382 -6.629,-2.382c-1.608,0 -3.071,0.325 -4.392,0.976c-1.32,0.65 -2.353,1.53 -3.099,2.64c-0.746,1.11 -1.119,2.354 -1.119,3.731l0,16.187c0,0.842 -0.268,1.54 -0.804,2.095c-0.536,0.555 -1.244,0.832 -2.124,0.832c-0.842,0 -1.54,-0.277 -2.095,-0.832c-0.555,-0.555 -0.832,-1.253 -0.832,-2.095l0,-25.6c0,-0.881 0.277,-1.588 0.832,-2.124c0.555,-0.536 1.253,-0.804 2.095,-0.804c0.88,0 1.588,0.268 2.124,0.804c0.536,0.536 0.804,1.243 0.804,2.124l0,0.631c1.224,-1.225 2.678,-2.172 4.362,-2.841c1.684,-0.67 3.482,-1.005 5.396,-1.005Z" style="fill-rule:nonzero;"/><path d="M350.82,61.603c-0.842,0 -1.54,-0.277 -2.095,-0.832c-0.555,-0.555 -0.832,-1.254 -0.832,-2.095l0,-25.543c0,-0.881 0.277,-1.588 0.832,-2.124c0.555,-0.536 1.253,-0.804 2.095,-0.804c0.88,0 1.588,0.268 2.124,0.804c0.536,0.536 0.803,1.243 0.803,2.124l0,25.543c0,0.841 -0.267,1.54 -0.803,2.095c-0.536,0.555 -1.244,0.832 -2.124,0.832Zm0.23,-36.334c-0.881,0 -1.588,-0.278 -2.124,-0.832c-0.536,-0.555 -0.804,-1.254 -0.804,-2.096c0,-0.803 0.23,-1.454 0.689,-1.951l5.625,-5.625c0.574,-0.574 1.263,-0.861 2.067,-0.861c0.841,0 1.54,0.287 2.095,0.861c0.555,0.574 0.832,1.282 0.832,2.123c0,0.842 -0.268,1.512 -0.804,2.009l-5.567,5.568c-0.536,0.536 -1.206,0.804 -2.009,0.804Z" style="fill-rule:nonzero;"/><path d="M397.257,29.976c2.946,0 5.634,0.698 8.064,2.095c2.43,1.396 4.334,3.31 5.712,5.74c1.377,2.43 2.066,5.137 2.066,8.122c0,2.985 -0.641,5.692 -1.923,8.122c-1.282,2.43 -3.042,4.334 -5.281,5.711c-2.238,1.378 -4.735,2.067 -7.49,2.067c-2.22,0 -4.286,-0.46 -6.2,-1.378c-1.913,-0.918 -3.539,-2.2 -4.879,-3.846l0,15.498c0,0.88 -0.267,1.588 -0.803,2.124c-0.536,0.536 -1.244,0.804 -2.124,0.804c-0.842,0 -1.54,-0.268 -2.095,-0.804c-0.555,-0.536 -0.832,-1.244 -0.832,-2.124l0,-26.174c0,-2.985 0.698,-5.692 2.095,-8.122c1.396,-2.43 3.291,-4.344 5.682,-5.74c2.392,-1.397 5.061,-2.095 8.008,-2.095Zm0,26.691c1.913,0 3.645,-0.469 5.194,-1.407c1.55,-0.937 2.775,-2.219 3.674,-3.846c0.899,-1.626 1.349,-3.453 1.349,-5.481c0,-2.028 -0.45,-3.865 -1.349,-5.511c-0.899,-1.645 -2.124,-2.937 -3.674,-3.874c-1.549,-0.938 -3.281,-1.406 -5.194,-1.406c-1.914,0 -3.645,0.468 -5.195,1.406c-1.55,0.937 -2.765,2.229 -3.645,3.874c-0.88,1.646 -1.32,3.483 -1.32,5.511c0,2.028 0.44,3.855 1.32,5.482c0.88,1.626 2.095,2.908 3.645,3.845c1.55,0.938 3.281,1.407 5.195,1.407Z" style="fill-rule:nonzero;"/><path d="M437.207,29.861c2.028,0 3.616,0.306 4.764,0.918c1.148,0.612 1.722,1.378 1.722,2.296c0,0.268 -0.019,0.459 -0.057,0.574c-0.345,1.225 -1.11,1.837 -2.296,1.837c-0.192,0 -0.479,-0.038 -0.861,-0.115c-1.531,-0.268 -2.775,-0.402 -3.731,-0.402c-2.755,0 -4.975,0.632 -6.659,1.895c-1.683,1.262 -2.525,2.965 -2.525,5.108l0,16.761c0,0.918 -0.239,1.626 -0.718,2.124c-0.478,0.497 -1.196,0.746 -2.152,0.746c-0.919,0 -1.627,-0.239 -2.124,-0.718c-0.497,-0.478 -0.746,-1.195 -0.746,-2.152l0,-25.658c0,-0.918 0.249,-1.626 0.746,-2.124c0.497,-0.497 1.205,-0.746 2.124,-0.746c1.913,0 2.87,0.957 2.87,2.87l0,1.091c1.148,-1.34 2.564,-2.392 4.247,-3.157c1.684,-0.766 3.483,-1.148 5.396,-1.148Z" style="fill-rule:nonzero;"/><path d="M461.658,61.833c-3.061,0 -5.797,-0.68 -8.208,-2.038c-2.411,-1.359 -4.286,-3.243 -5.625,-5.654c-1.34,-2.411 -2.009,-5.147 -2.009,-8.208c0,-3.1 0.669,-5.855 2.009,-8.266c1.339,-2.411 3.214,-4.295 5.625,-5.654c2.411,-1.358 5.147,-2.037 8.208,-2.037c3.023,0 5.731,0.679 8.122,2.037c2.392,1.359 4.267,3.243 5.625,5.654c1.359,2.411 2.038,5.166 2.038,8.266c0,3.061 -0.669,5.797 -2.009,8.208c-1.339,2.411 -3.205,4.295 -5.596,5.654c-2.392,1.358 -5.118,2.038 -8.18,2.038Zm0,-5.166c1.952,0 3.702,-0.46 5.252,-1.378c1.55,-0.918 2.755,-2.191 3.616,-3.817c0.861,-1.626 1.292,-3.473 1.292,-5.539c0,-2.067 -0.43,-3.923 -1.291,-5.568c-0.861,-1.645 -2.067,-2.927 -3.617,-3.846c-1.549,-0.918 -3.3,-1.377 -5.252,-1.377c-1.951,0 -3.702,0.459 -5.252,1.377c-1.55,0.919 -2.765,2.201 -3.645,3.846c-0.88,1.645 -1.32,3.501 -1.32,5.568c0,2.066 0.44,3.913 1.32,5.539c0.88,1.626 2.095,2.899 3.645,3.817c1.55,0.918 3.301,1.378 5.252,1.378Z" style="fill-rule:nonzero;"/><path d="M497.591,61.833c-2.603,0 -5.052,-0.402 -7.348,-1.206c-2.296,-0.803 -4.094,-1.856 -5.395,-3.157c-0.498,-0.497 -0.746,-1.09 -0.746,-1.779c0,-0.919 0.382,-1.665 1.148,-2.239c0.727,-0.536 1.396,-0.803 2.009,-0.803c0.765,0 1.492,0.344 2.181,1.033c0.727,0.803 1.817,1.502 3.272,2.095c1.454,0.593 3.004,0.89 4.649,0.89c2.181,0 3.874,-0.364 5.08,-1.091c1.205,-0.727 1.808,-1.703 1.808,-2.927c0,-1.187 -0.593,-2.172 -1.779,-2.956c-1.187,-0.785 -3.196,-1.445 -6.027,-1.981c-7.348,-1.416 -11.021,-4.439 -11.021,-9.069c0,-1.875 0.555,-3.463 1.664,-4.764c1.11,-1.301 2.564,-2.277 4.363,-2.928c1.798,-0.65 3.712,-0.975 5.74,-0.975c2.487,0 4.716,0.401 6.687,1.205c1.971,0.804 3.53,1.913 4.678,3.329c0.497,0.612 0.746,1.225 0.746,1.837c0,0.651 -0.325,1.244 -0.976,1.779c-0.421,0.307 -0.956,0.46 -1.607,0.46c-0.995,0 -1.894,-0.364 -2.698,-1.091c-0.956,-0.88 -1.97,-1.502 -3.042,-1.865c-1.071,-0.364 -2.372,-0.546 -3.903,-0.546c-1.76,0 -3.205,0.297 -4.334,0.89c-1.129,0.593 -1.693,1.425 -1.693,2.497c0,0.765 0.191,1.406 0.574,1.923c0.383,0.516 1.11,0.995 2.181,1.435c1.072,0.44 2.621,0.87 4.65,1.291c4.171,0.842 7.127,2.009 8.868,3.502c1.741,1.492 2.612,3.424 2.612,5.797c0,1.76 -0.479,3.358 -1.435,4.793c-0.957,1.435 -2.363,2.564 -4.219,3.387c-1.856,0.822 -4.085,1.234 -6.687,1.234Z" style="fill-rule:nonzero;"/><path d="M530.71,55.863c0.689,0 1.273,0.268 1.751,0.804c0.478,0.535 0.718,1.224 0.718,2.066c0,0.842 -0.316,1.531 -0.947,2.066c-0.632,0.536 -1.445,0.804 -2.44,0.804l-1.033,0c-1.875,0 -3.588,-0.488 -5.137,-1.464c-1.55,-0.976 -2.765,-2.305 -3.645,-3.989c-0.881,-1.684 -1.321,-3.578 -1.321,-5.683l0,-14.177l-2.64,0c-0.804,0 -1.454,-0.23 -1.952,-0.689c-0.497,-0.459 -0.746,-1.033 -0.746,-1.722c0,-0.766 0.249,-1.378 0.746,-1.837c0.498,-0.459 1.148,-0.689 1.952,-0.689l2.64,0l0,-8.265c0,-0.842 0.268,-1.531 0.804,-2.067c0.536,-0.536 1.225,-0.803 2.066,-0.803c0.842,0 1.531,0.267 2.067,0.803c0.536,0.536 0.803,1.225 0.803,2.067l0,8.265l4.879,0c0.804,0 1.455,0.23 1.952,0.689c0.497,0.459 0.746,1.071 0.746,1.837c0,0.689 -0.249,1.263 -0.746,1.722c-0.497,0.459 -1.148,0.689 -1.952,0.689l-4.879,0l0,14.177c0,1.531 0.421,2.813 1.263,3.846c0.842,1.033 1.875,1.55 3.1,1.55l1.951,0Z" style="fill-rule:nonzero;"/><path d="M554.589,61.833c-3.062,0 -5.798,-0.68 -8.208,-2.038c-2.411,-1.359 -4.286,-3.243 -5.626,-5.654c-1.339,-2.411 -2.009,-5.147 -2.009,-8.208c0,-3.1 0.67,-5.855 2.009,-8.266c1.34,-2.411 3.215,-4.295 5.626,-5.654c2.41,-1.358 5.146,-2.037 8.208,-2.037c3.023,0 5.73,0.679 8.122,2.037c2.392,1.359 4.267,3.243 5.625,5.654c1.359,2.411 2.038,5.166 2.038,8.266c0,3.061 -0.67,5.797 -2.009,8.208c-1.34,2.411 -3.205,4.295 -5.597,5.654c-2.391,1.358 -5.118,2.038 -8.179,2.038Zm0,-5.166c1.951,0 3.702,-0.46 5.252,-1.378c1.55,-0.918 2.755,-2.191 3.616,-3.817c0.861,-1.626 1.292,-3.473 1.292,-5.539c0,-2.067 -0.431,-3.923 -1.292,-5.568c-0.861,-1.645 -2.066,-2.927 -3.616,-3.846c-1.55,-0.918 -3.301,-1.377 -5.252,-1.377c-1.952,0 -3.703,0.459 -5.252,1.377c-1.55,0.919 -2.765,2.201 -3.645,3.846c-0.88,1.645 -1.32,3.501 -1.32,5.568c0,2.066 0.44,3.913 1.32,5.539c0.88,1.626 2.095,2.899 3.645,3.817c1.549,0.918 3.3,1.378 5.252,1.378Z" style="fill-rule:nonzero;"/><path d="M594.482,29.861c2.028,0 3.616,0.306 4.764,0.918c1.148,0.612 1.722,1.378 1.722,2.296c0,0.268 -0.019,0.459 -0.057,0.574c-0.345,1.225 -1.11,1.837 -2.296,1.837c-0.192,0 -0.479,-0.038 -0.861,-0.115c-1.531,-0.268 -2.775,-0.402 -3.731,-0.402c-2.756,0 -4.975,0.632 -6.659,1.895c-1.684,1.262 -2.525,2.965 -2.525,5.108l0,16.761c0,0.918 -0.24,1.626 -0.718,2.124c-0.478,0.497 -1.196,0.746 -2.152,0.746c-0.919,0 -1.627,-0.239 -2.124,-0.718c-0.498,-0.478 -0.746,-1.195 -0.746,-2.152l0,-25.658c0,-0.918 0.248,-1.626 0.746,-2.124c0.497,-0.497 1.205,-0.746 2.124,-0.746c1.913,0 2.87,0.957 2.87,2.87l0,1.091c1.148,-1.34 2.563,-2.392 4.247,-3.157c1.684,-0.766 3.482,-1.148 5.396,-1.148Z" style="fill-rule:nonzero;"/></g></svg>