<?xml version="1.0" encoding="UTF-8" standalone="no"?><!DOCTYPE svg PUBLIC "-//W3C//DTD SVG 1.1//EN" "http://www.w3.org/Graphics/SVG/1.1/DTD/svg11.dtd"><svg width="100%" height="100%" viewBox="0 0 432 324" version="1.1" xmlns="http://www.w3.org/2000/svg" xmlns:xlink="http://www.w3.org/1999/xlink" xml:space="preserve" xmlns:serif="http://www.serif.com/" style="fill-rule:evenodd;clip-rule:evenodd;stroke-linejoin:round;stroke-miterlimit:1.41421;"><path d="M260.475,160.156c-3.839,-2.568 -8.546,-4.78 -13.988,-6.573c-5.376,-1.77 -11.453,-3.406 -18.07,-4.863c-5.229,-1.248 -9.041,-2.209 -11.31,-2.851c-2.219,-0.635 -4.431,-1.514 -6.58,-2.631c-2.073,-1.065 -3.713,-2.346 -4.874,-3.806c-1.097,-1.381 -1.63,-2.981 -1.63,-4.897c0,-3.123 1.657,-5.761 5.067,-8.063c3.536,-2.389 8.303,-3.596 14.161,-3.596c6.311,0 10.901,1.091 13.649,3.243c2.827,2.212 5.296,5.349 7.335,9.341c1.756,3.12 3.347,5.289 4.877,6.68c1.646,1.493 4.018,2.262 7.045,2.262c3.327,0 6.155,-1.214 8.393,-3.609c2.226,-2.382 3.354,-5.11 3.354,-8.117c0,-3.121 -0.862,-6.354 -2.555,-9.597c-1.684,-3.207 -4.355,-6.301 -7.951,-9.188c-3.566,-2.871 -8.11,-5.203 -13.499,-6.93c-5.356,-1.713 -11.779,-2.581 -19.075,-2.581c-9.131,0 -17.201,1.311 -23.987,3.889c-6.873,2.614 -12.209,6.43 -15.865,11.333c-3.686,4.94 -5.552,10.669 -5.552,17.022c0,6.663 1.78,12.339 5.289,16.849c3.46,4.455 8.184,8.014 14.045,10.579c5.732,2.505 12.937,4.727 21.423,6.596c6.238,1.341 11.284,2.625 15,3.819c3.556,1.145 6.497,2.808 8.722,4.947c2.122,2.049 3.157,4.654 3.157,7.977c0,4.202 -1.983,7.631 -6.051,10.492c-4.168,2.927 -9.707,4.414 -16.463,4.414c-4.917,0 -8.909,-0.735 -11.873,-2.175c-2.944,-1.437 -5.252,-3.267 -6.856,-5.452c-1.666,-2.276 -3.25,-5.153 -4.697,-8.57c-1.297,-3.13 -2.907,-5.562 -4.79,-7.202c-1.97,-1.713 -4.395,-2.578 -7.199,-2.578c-3.423,0 -6.294,1.098 -8.533,3.264c-2.262,2.189 -3.409,4.86 -3.409,7.94c0,4.93 1.759,10.046 5.232,15.196c3.44,5.103 7.968,9.238 13.46,12.288c7.684,4.195 17.527,6.317 29.267,6.317c9.777,0 18.372,-1.556 25.545,-4.62c7.238,-3.097 12.823,-7.458 16.606,-12.961c3.795,-5.532 5.721,-11.845 5.721,-18.771c0,-5.795 -1.117,-10.778 -3.326,-14.814c-2.199,-4.011 -5.299,-7.381 -9.215,-10.003Zm-36,-157.216c-88.19,0 -159.675,71.488 -159.675,159.675c0,88.19 71.485,159.675 159.675,159.675c88.191,0 159.675,-71.485 159.675,-159.675c0,-88.187 -71.484,-159.675 -159.675,-159.675Zm38.272,249.096c-8.11,0 -15.738,-2.102 -22.407,-5.788c-4.851,0.925 -9.854,1.414 -14.97,1.414c-45.141,0 -81.74,-37.657 -81.74,-84.106c0,-5.795 0.572,-11.45 1.656,-16.912c-4.135,-7.242 -6.516,-15.668 -6.516,-24.67c0,-26.935 21.223,-48.774 47.403,-48.774c9.275,0 17.914,2.748 25.222,7.485c4.544,-0.805 9.215,-1.231 13.975,-1.231c45.148,0 81.744,37.657 81.744,84.102c0,6.194 -0.659,12.232 -1.89,18.047c3.151,6.527 4.927,13.882 4.927,21.666c-0.003,26.925 -21.224,48.767 -47.404,48.767Z" style="fill:#030104;fill-rule:nonzero;"/></svg>