<?xml version="1.0" encoding="UTF-8" standalone="no"?><!DOCTYPE svg PUBLIC "-//W3C//DTD SVG 1.1//EN" "http://www.w3.org/Graphics/SVG/1.1/DTD/svg11.dtd"><svg width="200px" height="200px" viewBox="0 0 2000 2000" version="1.1" xmlns="http://www.w3.org/2000/svg" xmlns:xlink="http://www.w3.org/1999/xlink" xml:space="preserve" xmlns:serif="http://www.serif.com/" style="clip-rule:evenodd;stroke-linejoin:round;stroke-miterlimit:1.41421;"><path d="M1222.92,985.011c-23.937,-16.014 -53.288,-29.808 -87.224,-40.988c-33.52,-11.036 -71.418,-21.241 -112.675,-30.327c-32.608,-7.778 -56.38,-13.773 -70.526,-17.776c-13.836,-3.962 -27.63,-9.438 -41.03,-16.408c-12.923,-6.638 -23.149,-14.624 -30.388,-23.73c-6.845,-8.608 -10.164,-18.586 -10.164,-30.533c0,-19.478 10.33,-35.927 31.591,-50.281c22.05,-14.894 51.775,-22.423 88.303,-22.423c39.349,0 67.974,6.803 85.108,20.224c17.632,13.794 33.023,33.355 45.738,58.246c10.953,19.457 20.868,32.981 30.409,41.652c10.268,9.313 25.058,14.105 43.934,14.105c20.743,0 38.374,-7.571 52.334,-22.506c13.877,-14.852 20.909,-31.861 20.909,-50.613c0,-19.457 -5.372,-39.619 -15.93,-59.843c-10.496,-19.996 -27.153,-39.287 -49.576,-57.292c-22.236,-17.901 -50.571,-32.442 -84.175,-43.208c-33.396,-10.682 -73.45,-16.096 -118.94,-16.096c-56.939,0 -107.261,8.173 -149.577,24.248c-42.855,16.304 -76.126,40.096 -98.923,70.672c-22.983,30.803 -34.62,66.522 -34.62,106.141c0,41.548 11.098,76.936 32.981,105.063c21.573,27.775 51.028,49.97 87.577,65.963c35.74,15.619 80.669,29.475 133.584,41.133c38.893,8.359 70.36,16.366 93.53,23.813c22.174,7.135 40.511,17.507 54.388,30.844c13.234,12.778 19.685,29.02 19.685,49.742c0,26.198 -12.362,47.584 -37.731,65.423c-25.991,18.254 -60.528,27.526 -102.657,27.526c-30.658,0 -55.549,-4.584 -74.031,-13.566c-18.358,-8.961 -32.753,-20.369 -42.752,-33.998c-10.392,-14.188 -20.265,-32.13 -29.289,-53.433c-8.089,-19.519 -18.129,-34.683 -29.869,-44.909c-12.28,-10.682 -27.402,-16.076 -44.888,-16.076c-21.344,0 -39.246,6.846 -53.206,20.349c-14.105,13.649 -21.261,30.306 -21.261,49.514c0,30.741 10.973,62.643 32.628,94.753c21.449,31.82 49.68,57.603 83.926,76.625c47.917,26.156 109.295,39.39 182.497,39.39c60.963,0 114.563,-9.707 159.285,-28.811c45.136,-19.312 79.964,-46.506 103.548,-80.815c23.668,-34.495 35.678,-73.865 35.678,-117.052c0,-36.134 -6.97,-67.207 -20.743,-92.368c-13.711,-25.016 -33.043,-46.029 -57.458,-62.374Zm-224.48,-980.332c-549.915,0 -995.66,445.766 -995.66,995.661c0,549.915 445.745,995.66 995.66,995.66c549.916,0 995.661,-445.745 995.661,-995.66c0,-549.895 -445.745,-995.661 -995.661,-995.661Zm238.648,1553.25c-50.572,0 -98.135,-13.109 -139.725,-36.093c-30.243,5.767 -61.44,8.816 -93.343,8.816c-281.481,0 -509.695,-234.81 -509.695,-524.443c0,-36.134 3.568,-71.397 10.33,-105.457c-25.784,-45.158 -40.635,-97.699 -40.635,-153.83c0,-167.955 132.339,-304.133 295.586,-304.133c57.832,0 111.701,17.134 157.273,46.672c28.335,-5.02 57.458,-7.675 87.141,-7.675c281.523,0 509.716,234.81 509.716,524.423c0,38.623 -4.107,76.272 -11.782,112.53c19.644,40.698 30.72,86.56 30.72,135.099c-0.02,167.893 -132.339,304.091 -295.586,304.091Z" style="fill:#fff;fill-rule:nonzero;"/></svg>